<svg xmlns="http://www.w3.org/2000/svg" width="900" height="500" viewBox="0 0 900 500">
  <rect width="900" height="500" rx="18" fill="#f5f7fa"/>
  <rect x="28" y="24" width="844" height="58" rx="12" fill="#ffffff" stroke="#e4e7ed"/>
  <circle cx="64" cy="53" r="14" fill="#7c4dff"/>
  <text x="90" y="60" font-family="Segoe UI, sans-serif" font-size="20" font-weight="700" fill="#303133">MaskBox</text>
  <text x="710" y="60" font-family="Segoe UI, sans-serif" font-size="14" fill="#909399">文件夹管理 / Folders</text>
  <rect x="28" y="100" width="844" height="110" rx="12" fill="#ffffff" stroke="#e4e7ed"/>
  <rect x="52" y="124" width="300" height="36" rx="8" fill="#f5f7fa" stroke="#dcdfe6"/>
  <rect x="376" y="124" width="140" height="36" rx="8" fill="#f5f7fa" stroke="#dcdfe6"/>
  <rect x="720" y="122" width="120" height="38" rx="8" fill="#7c4dff"/>
  <rect x="52" y="172" width="792" height="20" rx="8" fill="#fafbfc" stroke="#c8c9cc" stroke-dasharray="6 4"/>
  <rect x="28" y="226" width="844" height="246" rx="12" fill="#ffffff" stroke="#e4e7ed"/>
  <g font-family="Segoe UI, sans-serif" font-size="13" fill="#303133">
    <text x="60" y="262">Secret</text>
    <text x="260" y="262">D:\Secret</text>
    <rect x="510" y="250" width="56" height="20" rx="10" fill="#7c4dff"/>
    <text x="521" y="264" fill="#ffffff" font-size="11">隐藏</text>
    <rect x="576" y="250" width="56" height="20" rx="10" fill="#4d9fff"/>
    <text x="587" y="264" fill="#ffffff" font-size="11">伪装</text>
    <text x="58" y="302">Projects</text>
    <text x="258" y="302">E:\Projects</text>
    <rect x="510" y="290" width="56" height="20" rx="10" fill="#67c23a"/>
    <text x="521" y="304" fill="#ffffff" font-size="11">正常</text>
    <text x="58" y="342">Old Backup</text>
    <text x="258" y="342">F:\Old Backup</text>
    <rect x="510" y="330" width="56" height="20" rx="10" fill="#f56c6c"/>
    <text x="521" y="344" fill="#ffffff" font-size="11">丢失</text>
  </g>
  <text x="450" y="450" text-anchor="middle" font-family="Segoe UI, sans-serif" font-size="12" fill="#a8abb2">截图占位 / Screenshot placeholder</text>
</svg>
